<?xml version="1.0" encoding="utf-8"?>
<svg version="1.1" xmlns:xlink="http://www.w3.org/1999/xlink" width="29px" height="50px" xmlns="http://www.w3.org/2000/svg">
  <g transform="matrix(1 0 0 1 -1241 -446 )">
    <path d="M 28.501718213058417 23.847695390781563  C 28.833906071019477 24.181696726786907  29 24.565798263193052  29 25  C 29 25.434201736806944  28.833906071019477 25.81830327321309  28.501718213058417 26.152304609218437  L 5.281786941580756 49.498997995991985  C 4.949599083619702 49.83299933199733  4.56758304696449 50  4.13573883161512 50  C 3.703894616265751 50  3.3218785796105386 49.83299933199733  2.9896907216494846 49.498997995991985  L 0.4982817869415808 46.9939879759519  C 0.16609392898052702 46.65998663994655  0 46.27588510354042  0 45.84168336673346  C 0 45.407481629926515  0.16609392898052702 45.02338009352037  0.4982817869415808 44.68937875751503  L 20.080756013745702 25  L 0.4982817869415808 5.31062124248497  C 0.16609392898052702 4.976619906479623  0 4.592518370073479  0 4.1583166332665344  C 0 3.7241148964595796  0.16609392898052702 3.340013360053434  0.4982817869415808 3.0060120240480934  L 2.9896907216494846 0.5010020040080165  C 3.3218785796105386 0.16700066800267033  3.703894616265751 0  4.13573883161512 0  C 4.56758304696449 0  4.949599083619702 0.16700066800267033  5.281786941580756 0.5010020040080165  L 28.501718213058417 23.847695390781563  Z " fill-rule="nonzero" fill="#000000" stroke="none" transform="matrix(1 0 0 1 1241 446 )" />
  </g>
</svg>