<?xml version="1.0" encoding="utf-8"?>
<svg version="1.1" xmlns:xlink="http://www.w3.org/1999/xlink" width="29px" height="50px" xmlns="http://www.w3.org/2000/svg">
  <g transform="matrix(1 0 0 1 -327 -446 )">
    <path d="M 28.501718213058417 3.0060120240480934  C 28.833906071019477 3.340013360053434  29 3.7241148964595796  29 4.1583166332665344  C 29 4.592518370073479  28.833906071019477 4.976619906479623  28.501718213058417 5.31062124248497  L 8.919243986254296 25  L 28.501718213058417 44.68937875751503  C 28.833906071019477 45.02338009352037  29 45.407481629926515  29 45.84168336673346  C 29 46.27588510354042  28.833906071019477 46.65998663994655  28.501718213058417 46.9939879759519  L 26.010309278350515 49.498997995991985  C 25.678121420389463 49.83299933199733  25.296105383734254 50  24.86426116838488 50  C 24.432416953035514 50  24.0504009163803 49.83299933199733  23.718213058419245 49.498997995991985  L 0.4982817869415808 26.152304609218437  C 0.16609392898052702 25.81830327321309  0 25.434201736806944  0 25  C 0 24.565798263193052  0.16609392898052702 24.181696726786907  0.4982817869415808 23.847695390781563  L 23.718213058419245 0.5010020040080165  C 24.0504009163803 0.16700066800267033  24.432416953035514 0  24.86426116838488 0  C 25.296105383734254 0  25.678121420389463 0.16700066800267033  26.010309278350515 0.5010020040080165  L 28.501718213058417 3.0060120240480934  Z " fill-rule="nonzero" fill="#000000" stroke="none" transform="matrix(1 0 0 1 327 446 )" />
  </g>
</svg>